<?xml version="1.0" encoding="utf-8"?>
<!-- Generator: Adobe Illustrator 20.0.0, SVG Export Plug-In . SVG Version: 6.00 Build 0)  -->
<svg version="1.1" id="Layer_2" xmlns="http://www.w3.org/2000/svg" xmlns:xlink="http://www.w3.org/1999/xlink" x="0px" y="0px"
	 viewBox="0 0 319 301.8" style="enable-background:new 0 0 319 301.8;" xml:space="preserve">
<style type="text/css">
	.st0{fill:#AFAFAF;}
	.st1{fill:#A176B2;}
	.st2{fill:#0B8282;}
	.st3{fill:#9765A7;}
</style>
<path id="england" class="st0" d="M117.1,296.9c-6.5,3.5-5.9-3.9-0.8-6.2c2.5-1.2,4.9,0,8-1.7c2-1.1,3.3-4,4.8-5.6
	c4.1-4.3,9.7-4.9,13.8-9c5.2-5.3,5.7-5,12.2-7.6c1.4-1.4,0.8-3.3,2.8-4.8c2.4-1.7,9.4-0.6,12.1-0.2c4.3,0.7,8.3,3.6,12.1,4.2
	c2.6,0.5,6.7-0.4,8.9-1.4c0.8-1.7,1.9-3,3.4-4c1.6-0.9,3.3-1.2,5.1-0.9c5-3.2,5-9.1,1.5-14.5c-3.7-5.7-12.2-6.3-11.7-14.3
	c1.2-1.4,2.1-2.9,2.6-4.6c0.3-2-0.3-3.7-1.9-5.1c-0.3-4.9,3.3-4.1,4.1-7.8c0.5-2.3-2.6-3.8-1.6-5.9c1.4-2.9,3-1,4.7-2.1
	c5.3-3.4,2-0.6,3-5.4c0.2-0.8-0.9-6.7,0-7.3c0.7-0.4,12.5,8,11.7,0.3c-0.3-2.5-6.1-3.5-7.3-6.3c-1.8-4.1,0.5-11.1,3.3-14.5
	c1.5-1.9,4-0.4,4.3-3.7c0.4-3.7-1.5-2.8-4.1-2.6c-5.9,0.4-3.2,4.7-8.2-0.8c-6.1-6.5-5.9-13.4-1-20.1c3.9-5.2,9.1-5.3,13.6-9.1
	c2.7-2.3,3.8-5.7,6.9-7.8c1.7-1.1,4.1-1.3,5.7-2.4c4.8-3.6,4.1-10.5,10.6-12.2c6.1-1.6,12.1,5.2,14.1,10.7c4,10.6-2.5,24.5,8.6,32.1
	c2.5,1.7,5.5,1.8,7.9,4.2c2.4,2.4,3.4,5.5,5.6,8c2.3,2.6,4,2.4,5.1,5.9c0.7,2.4-0.1,6.6,0.8,9.6c1.8,6.3,6,10.8-2.2,6.5
	c-3.9-2.1-5.9-4.1-10.1-5.2c-2.3-0.6-5.7,0.5-7.8-1.1c-0.9,7.8-0.2,7.1,6.5,7.1c9,0,15.5,7.2,19.2,15.3c2.4,5.3,2.8,2.6-1.3,6.5
	c-1.6,1.5-5.3,2.6-5.5,5.1c-0.2,1.9,5.2,6.5,7.1,5.9c3.3-1.1,1.9-6.4,5.1-8.4c6.4-4,15,3.8,20.2,6.5c9.1,4.6,11.7,9.7,7.4,19.7
	c-0.8,1.8-3.5,7.6-5.1,8.5c-1.1,0.6-3.9-0.4-4.4,0c-0.4,0.1-0.8,0.2-1.3,0.3c-1.8-0.1-2.2,1-1.3,3.2c-2.6,2.7-3,2.8-6.6,4.2
	c-0.1,0-3.6,0.4-4,0.8c-1.8,2.1,1.1,3.2-0.2,5.2c-2,2.9-6.1-0.6-3.6,4c2.2,4,4.3,1.2,7.5,1.3c6.5,0.2,12.3,6.9,5.7,10.9
	c-3.4,2-8.9,2.7-12.7,4.7c-4,2.1-6.9,2.9-11.2,4.2c-2.4,0.7-5.7,2.7-8,2.4c-1.3-0.2-2.9-2.9-4-3.3c-3-1-4.8-1.1-8.1-0.9
	c-3.5,0.2-9.5,2.2-12.9,1.1c-1.8-0.6-1.8-2.8-2.6-3.1c-2.4-0.8-5.1-1-7.6-1.3c-0.5-0.1-2.9-1.4-3.6-1.2c-2.4,0.6-2,3.4-4,4
	c-2.2,0.6-6.5-1.5-9.4-1c-1.2,0.2-2.5-0.3-3.6,0.1c-1.3,0.4-0.9,2.1-2.2,2.3c-3.6,0.8-5.3-0.9-8.9-1c-2,0-3.1,1.5-5,1.3
	c-1.5-0.2-3.3-2.4-5-3c-3.4-1.2-11-2.1-14.4-1.3c-4.7,1-4.6,3-7.4,6.2c-7.9,9-12.5,0.5-21.5-0.5c-5.6-0.6-10.2,0.9-15.2,3
	c-4.3,1.8-4.5,3.7-7.7,6.9c-0.7,0.7-1,2.1-3.4,1.7c-3.3-0.5,1.4-0.5-2.2-2.2C121.4,298.8,118.3,297.6,117.1,296.9
	C114.6,298.3,117.8,297.3,117.1,296.9z"/>
<path id="wales" class="st1" d="M195.4,212.5c-2.4,2.9-5.9,3.7-5.3,7.8c0.8,4.9,3.7,2.5,1.8,7.5c-2.1,5.4-5.5,3.3,0.9,9.8
	c3.7,3.8,13.7,6.7,9.7,13.7c-1.4,2.5-6.8,3-8.9,3.6c-3.5,0.9-7.9,3.1-11.7,3.4c-6.4,0.6-7.6-3.9-12.5-6.1c-4-1.8-5.9,0.8-9-0.1
	c-2.6-0.7-3.4-3.6-5.8-4.5c-2.2-0.9-17.8,3.4-14.8-3.1c1.2-2.5,13-4.7,2.6-6c-2.9-0.4-6.4,4-9.5,1.6c-3.5-2.8,3.6-5.8,4.3-6.2
	c6.8-3.6,23.4-3.7,28.1-9.6c0.7-0.8,2.9-14.3,2.1-15.3c-1.8-2.2-19,4.2-11.8-4.6c2.8-3.4,11.2-4.3,15.1-5.9c4-1.6,7-5.4,10.5-6.8
	c4-1.7,9.6,0.5,13.9,3.1c4.7,3,8,6.4,3.4,10.4c-0.3,0.3-7.5,2.2-7.3,2.4C192,209.1,194.2,211.3,195.4,212.5
	C194.7,213.2,195.1,212.2,195.4,212.5z"/>
<path id="scotland" class="st1" d="M220.6,128.2c-2.3,2.1-4,4-6.1,6.8c-4.3,5.6-2.7,3.3-7.7,1.1c-10.2-4.4-7.2,4.9-16.5,6.3
	c-4.6,0.7-5.4-3.3-8.9-4.1c-2.7-0.6-3,2.1-6.3,1.7c-2.4-0.3-3.9-4.1-6-3.2c-2.4,0.9-1.2,6.4-4.5,6.6c-6.3,0.4-3.4-12.4-1.8-14.8
	c3.7-5.9,15.4-9.2,15.6-17.1c0-2.3-2-2.9-2.4-5.5c-0.3-1.8,0.3-3.6,0.5-5.4c0.1-1.9,1.8-10-2-7.3c-2.6,1.9,0.4,8.8-5.7,4.2
	c-3.1-2.3-1.4-2.5-0.8-4.4c-1.6,1.4-4.3,1.5-5.5,3.2c-1.1,1.6-0.2,3.9-0.7,5.6c-0.7,2.3-2.3,4-3.2,6.2c-1.4,3.6-0.9,6.6-4.4,8.9
	c-3.7,2.5-4.9,2.2-5.4-1.4c-0.4-3.2,4.8-9.8,6.1-13.1c2-5,2.5-10.6,4.8-15.4c1-2,14.9-16.3,15.3-14.1c-0.6-3.4-13.3,2.9-14.8,2.7
	c-2.6-0.5-6.2-2.3-2.4-4.9c1.2-0.9,4,2,4.3,1.5c0.1-0.2-4.4-1.6-4.7-1.9c-0.8-0.5-1.5-1-2.3-1.5c-0.4-2.4,0.5-3.4,2.7-2.9
	c2.2-3.9,8.9-9.1,9.3-13.6c0-1.3-0.8-2.1-2.5-2.3c-0.7-2.3-0.8-4.6-0.1-6.9c0.4-2.3,1.5-6.5,2.7-8.3c4-6,10.2,0.5,13.4-3.7
	c-6.8-4.3-0.2-7.2,2.6-10.2c1-1,2.2-1.1,3-2.3c-0.6,0.8,1.4-4.6,1.4-4.5c2.2-4.1,0.2-3.1,4.9-3.9c1.2-0.2,5.7,0.4,6.8,0.6
	c1.6,0.3,2.7,2.1,4.6,2.3c3.1,0.4,6.9-0.4,10.1-0.2c6,0.2,24.3,0.1,15.1,10.9c-1.6,1.8-3.8,1.3-5.6,2.5c-1.6,1-2.9,2.9-4.5,3.9
	c-4.5,2.7-10.3,2.4-12.7,8c3.6,1.1,5.5-1,0.9,4.4c-1.8,2.2-3.8,4.1-5.4,6.3c-0.1,0.1,10.5-3.6,11.5-3.8c3.8-0.6,9.5,1.2,13.5,1.6
	c6.4,0.7,21.6-0.6,25.7,5.4c3.2,4.6-1.7,7.1-3.9,10.7c-2.9,4.7-5.5,8.7-9,13.1c-7.6,9.7-17.2,9.7-28,15.3c6.2,2.4,10.8-4.1,13.9,3.6
	c-5.4-0.2-8.6,4.5-13.2,4.7c-3.2,0.1-6.9-4.9-10.2-3.8c-5.3,1.7,1.4,5.4,3.7,6.6c6,3.2,10.2,2.1,16.5,1.9c5.2-0.1,19.1,1.8,14.4,9.7
	c-0.5,0.9-3.9,2.1-4.9,3.3c-1.5,1.8-1.1,4-2.3,5.7C226.7,126.9,223.3,125.9,220.6,128.2C220.3,128.5,221,127.9,220.6,128.2z"/>
<path id="ireland" class="st2" d="M42.3,200.1c-1.2-4.4-21.2,7-21.1,0.2c8.1-1.6,7.3-9.1,12.7-12.8c4.5-3.1,10.3,2.4,12.1-2.4
	c1.1-2.9-2.6-13.1-7.4-12.4c-6.9,0.9,2,5.8-2.3,8.5c-2.8,1.8-8.1-3.3-10.8-3.8c-4.7-0.9-8.1-0.4-5.6-6.6c2.5-6.3,3.2,0,8.9-2.5
	c2.7-1.2,0.3-2,2.1-3.6c1.9-1.7,6.1,0.3,4.7-4.1c-1.9-0.7-3.1,1.4-5.1,0.1c5-5.8-3-9.1,4.8-14.1c3.3-2.1-0.7-0.7,4.8-1.4
	c3.9-0.5,6.2,0,9.4,1.6c2.5,1.3,1.4,2.9,4.7,3.9c-1.7-0.5,6.6-1,6-0.7c1.2-0.5,1.2-1.4,0.1-2.5c1.2-0.9,2.6-1.3,4.1-1
	c1-0.5,9-1,8.8-3c-0.2-1.5-20.7-3.9-12-10.1c5.8,5.3,8.3-1.7,10.1-4.3c2.2-3.1,4.7-5.6,8.8-6c1.2-0.1,3,0.8,4,0.6
	c-0.9,0.2,6.1-0.5,3.7-1.1c2.3,0.5,4-0.6,4.1,3.6c0.1,2.6-5,6.4,0.2,6.3c4.7-0.1,2.8-3.4,4.3-6.4c0.5-0.9,2.9-6.6,4.2-6.9
	c4.9,5.4,5.2,5.8,0.8,12.5c-1.7,2.6-5.2,8.2-8.2,9.2c-1.1,0.4-6.1-0.7-6.5-0.3c-2.1,2.1,2.6,6.3-3.1,8.5c-4,1.6-7.6-1.9-3.8,5
	c1.6,2.9,7.3,8,10.9,6.7c4.5-1.6,2.8-12.4,11.7-8.8c5.8,2.3,1.7,5.5,4.1,9c2.8,4.3,8.9,1.5,11.8,4.3c5.1,4.8-2.6,5.1-4.1,7.2
	c-2,2.6-0.2,7.9,0.3,10c1.2,6.5-1,9.9-0.8,16c0.2,6-1.7,9.1-4.8,15c-1.4,2.7-2.6,7-4.5,9.2c0,0-4.7,4.3-4,2.6
	c-0.1,0.2-1,3.8-0.6,3.4c0.5,0.8,0.6,1.7,0.3,2.7c-1.2,0.2-2.4,0.2-3.5,0c-6.1,1.7-5.9-2.9-10.9-2.8c-1.7,0-4.5,2.1-6.8,2.2
	c-1.9,0.1-5.6-1.6-7.6-1c-2.4,0.7-2.8,3.2-5,3.8c-1.7,0.5-3.4-1-5.3-0.4c-1.6,0.5-2.1,3-4.3,3.4c-3.8,0.7-4.2-2.5-7.3-3.4
	c-6.1,7.3-6.2,8.4-15.4,8.7c-3.9,0.1-7.7,2.5-11.6,1c-1.8-0.7-1.8-2.8-3.1-3.8c-1.1-0.8-4,0.3-4.7-0.7c-1.4-2.3,2.7-3.5,0-5.5
	c-1.3-0.9-8.5,3.1-10.8,2.5c-6.9-2,5.8-6.4,8.8-7.5c-3.9-2.1-12.7,2.6-12.3-4.1c0.3-5.4,10.1-5.1,14-6c-3.8-1.2-17.9,1.3-12.9-5.6
	c4.8-6.8,11.2,3,15.8,0.6c-0.1,0.1-0.7-4.7,0.9-6c1.3-1.1,6.2-0.7,7.7-0.7C30.3,206,43.1,208.7,42.3,200.1
	C42,198.8,42.5,201.9,42.3,200.1z"/>
<path id="n-ireland" class="st3" d="M93.3,139.8c2.1-3.1,5.1-8.7,9-10c-3,1,6.3,0.6,5.2,0.8c0.8-1,1.7-1.9,2.6-2.8
	c1.1,0.9,2.1,1,3.2,0.4c2.3-0.8,5.1-2.6,7.6-2.2c6.8,1.1,6.7,7.5,8.4,12.5c0.4,1.2,3.9,6.5,3.9,6.4c-0.3,3.4-4.6,2.7-5,6
	c5.8-0.4,7.7-6.1,9.5,2.9c1.2,5.9-0.6,9.1-4.9,2.3c-4.6,4.6,1.2,4.7-0.4,7.8c-1.2,2.5-2.1,0.8-3.1,1.5c-1.9-1.3-3.2-0.9-4,1.3
	c-0.5,0.7-0.9,1.4-1.4,2.1c-1.2,1.5-2.8,1.9-4.6,1c-0.3-1.4-0.9-2.7-1.8-3.8c-4.5-2-6.9-0.4-10.5-4.2c-1.8,0.4-2.9-0.3-3.2-2.4
	c-0.1-1.6,0.4-2.9,1.5-4.1c-1.2-2.7-3-4-6.9-3.1c-6.7,1.6-2.6,9.2-9.8,8.8c-3.6-0.2-11.3-5.5-12-9.5c-1.4-8.5,5-2.6,7.9-3.8
	c3.5-1.6,0.5-3.9,1.6-5.2C88.6,139.5,89.5,142,93.3,139.8C95.8,136.1,91.6,140.8,93.3,139.8z"/>
</svg>
