<svg xmlns="http://www.w3.org/2000/svg" viewBox="0 0 197.1 364.5" enable-background="new 0 0 197.1 364.5"><path d="m78.5 0c0 16.3.3 17.2-12.2 27.5-12.7 10.4-12.3 11.2-12.3 28 8.5-4.7 46.2-20.7 54.1-9.2 2.6 3.7-5.8 22.8-6.8 28.3-2.2 12.5 3.3 8-8 17.9-7.5 6.5-19.2 11-9.4 25.8 5.3 8.1 30.6 7 23.1 20.3 14.1-.2 12 7.8 12 18.5 0 18.3 1.8 8.3 8.5 16.3 2.1 2.6-.9 6.8 1.8 9.5 3.7 3.6 11.7 3 15.2 6.7 5.7 6 7.1 18.8 12.5 26-3.5 1-6.5 4.2-10 5 7.9 4.2 16.2 6.4 17.5 16.5-7 .1-17.6 11.3-10 18.5 7.2 6.8 14.2-3.6 12-11 18 7 37 8.5 28.5 33.6-7.5 22.1-25.7 15.3-5.5 36.4-10.8 6.4-25.9 10.6-26.5 25-5.6-2.7-13.4-8.4-19.3-8.8-8.5-.5-11.6 6.9-19.2 1.3.7 3.2-.6 6.8 0 10-9.6-5.4-62.2-12.7-50.5 9.5-4.3.9-11 3.8-15.2 3.1-4.1-.6-8.5-6.9-12.2-7-7.3-.2-11.3 9.1-17.1 16.8-3.5-3.5-7-7-10.5-10.5 11.6-8.9 19.7-20.3 30.8-29 10.6-8.4 7.8-3.2 19.2-5.2 6.4-1.1 15.6-1.2 19.9-9.1 11.5-20.8-13-3.2-19.1-3-12.4.5-32.5-12.3-44.2-16.7 7.9-3.9 25.1-8.4 30.4-14.9 4.8-6 3.5-18.6 4.1-27.1-5.8.8-11.7 1.7-17.5 2.5 0-6.2 0-12.3 0-18.5 6 4.6 27.1 5 32.3 2 8.7-5 11.5-26.2 17.2-34.5-21.5-6.7-13.9-18.7-13-40-10.2 4.2-31.9 19.5-41.2 10.9-11.3-10.4 6.1-14.6 8.2-23.9 1.1-4.6-3.5-15-4.5-19.5-10.2 11.5-21.3 26-24 5.4-3.2-25 11.1-24.3-17.5-29.9 2.8-6.9 3.5-13.7 9.4-14.5 0-18.1 5.5-19.7 8.4-34.7.7-3.8-1.3-10.1.5-13.5 1.1-2.2 4.9-2.9 5.3-4-.4 1 5.4-5.2 5.5-5.4 1.8-2.2.6-10.8.8-13.9 2.2.2 4.3.3 6.5.5-.9-4.5.4-9.7-1-14 20.8 9 22.9 6.7 43-4" fill="#683089"/></svg>