<?xml version="1.0" encoding="utf-8"?>
<!-- Generator: Adobe Illustrator 20.0.0, SVG Export Plug-In . SVG Version: 6.00 Build 0)  -->
<svg version="1.1" id="Layer_1" xmlns="http://www.w3.org/2000/svg" xmlns:xlink="http://www.w3.org/1999/xlink" x="0px" y="0px"
	 viewBox="0 0 197.1 364.5" style="enable-background:new 0 0 197.1 364.5;" xml:space="preserve">
<style type="text/css">
	.st0{fill:#683089;}
</style>
<path class="st0" d="M78.5,0c0,16.3,0.3,17.2-12.2,27.5C53.6,37.9,54,38.7,54,55.5c8.5-4.7,46.2-20.7,54.1-9.2
	c2.6,3.7-5.8,22.8-6.8,28.3c-2.2,12.5,3.3,8-8,17.9c-7.5,6.5-19.2,11-9.4,25.8c5.3,8.1,30.6,7,23.1,20.3c14.1-0.2,12,7.8,12,18.5
	c0,18.3,1.8,8.3,8.5,16.3c2.1,2.6-0.9,6.8,1.8,9.5c3.7,3.6,11.7,3,15.2,6.7c5.7,6,7.1,18.8,12.5,26c-3.5,1-6.5,4.2-10,5
	c7.9,4.2,16.2,6.4,17.5,16.5c-7,0.1-17.6,11.3-10,18.5c7.2,6.8,14.2-3.6,12-11c18,7,37,8.5,28.5,33.6c-7.5,22.1-25.7,15.3-5.5,36.4
	c-10.8,6.4-25.9,10.6-26.5,25c-5.6-2.7-13.4-8.4-19.3-8.8c-8.5-0.5-11.6,6.9-19.2,1.3c0.7,3.2-0.6,6.8,0,10
	c-9.6-5.4-62.2-12.7-50.5,9.5c-4.3,0.9-11,3.8-15.2,3.1c-4.1-0.6-8.5-6.9-12.2-7c-7.3-0.2-11.3,9.1-17.1,16.8
	c-3.5-3.5-7-7-10.5-10.5c11.6-8.9,19.7-20.3,30.8-29c10.6-8.4,7.8-3.2,19.2-5.2c6.4-1.1,15.6-1.2,19.9-9.1c11.5-20.8-13-3.2-19.1-3
	c-12.4,0.5-32.5-12.3-44.2-16.7c7.9-3.9,25.1-8.4,30.4-14.9c4.8-6,3.5-18.6,4.1-27.1c-5.8,0.8-11.7,1.7-17.5,2.5
	c0-6.2,0-12.3,0-18.5c6,4.6,27.1,5,32.3,2c8.7-5,11.5-26.2,17.2-34.5c-21.5-6.7-13.9-18.7-13-40c-10.2,4.2-31.9,19.5-41.2,10.9
	c-11.3-10.4,6.1-14.6,8.2-23.9c1.1-4.6-3.5-15-4.5-19.5c-10.2,11.5-21.3,26-24,5.4c-3.2-25,11.1-24.3-17.5-29.9
	C2.9,96.6,3.6,89.8,9.5,89c0-18.1,5.5-19.7,8.4-34.7c0.7-3.8-1.3-10.1,0.5-13.5c1.1-2.2,4.9-2.9,5.3-4c-0.4,1,5.4-5.2,5.5-5.4
	c1.8-2.2,0.6-10.8,0.8-13.9c2.2,0.2,4.3,0.3,6.5,0.5c-0.9-4.5,0.4-9.7-1-14C56.3,13,58.4,10.7,78.5,0z"/>
</svg>
