<?xml version="1.0" encoding="utf-8"?>
<!-- Generator: Adobe Illustrator 19.0.0, SVG Export Plug-In . SVG Version: 6.00 Build 0)  -->
<svg version="1.1" xmlns="http://www.w3.org/2000/svg" xmlns:xlink="http://www.w3.org/1999/xlink" x="0px" y="0px"
	 viewBox="0 0 996 1166.9" style="enable-background:new 0 0 996 1166.9;" xml:space="preserve">
<style type="text/css">
	.st0{fill:#8A242E;}
	.st1{fill:#364151;}
	.st2{fill:#335B8D;}
	.st3{fill:#382B2B;}
	.st4{fill:none;}
	.st5{fill:#4E0F12;}
</style>
<g id="Layer_1">
</g>
<g id="Layer_10">
	<path id="XMLID_2_" class="st0" d="M678.6,1142.8c0,0,8.8-1.8,10.5,0c1.8,1.8,14.9,6.1,11.4,8.8c-3.5,2.6-19.3,6.1-20.2,0
		C679.5,1145.5,678.6,1142.8,678.6,1142.8z"/>
	<path id="XMLID_10_" class="st0" d="M642.6,1119.1c0,0,7-8.8,11.4-7c4.4,1.8,6.1,11.4,3.5,12.3S642.6,1119.1,642.6,1119.1z"/>
</g>
<g id="Layer_9">
	<path id="XMLID_3_" class="st0" d="M527.9,690.4c0-2.2,1.1-7.7,7.7-16.5c6.6-8.8,12.1-22.1,15.4-18.2c3.3,3.9,8.8,2.8,5.5,13.8
		c-3.3,11-3.4,18.7-13.8,20.9c-10.4,2.2-10.4,2.2-10.4,2.2L527.9,690.4z"/>
</g>
<g id="scotland">
</g>
<g id="England">
	<path id="XMLID_4_" class="st1" d="M606.9,962.9c0,0-18,0-36,6s-36,32-34,46s-20,28-20,28s-20,8-36,16s32,6,40,10s14-15,14-15
		s46-7,56-1s16-16,26-26s4-14,8-14.3s86,2.3,102,0s2-15.7,16-23.7s20,10,30,19.9s16-1.9,22-9.9s22-12,50-6s48-10,54-12s12-28,2-28
		s-40,0-40,0v-18c0,0,48-34,54-48s12-52-6-82s-52,0-52,0l-12-42c0,0-18,2-14-8s-2-46-8-50s-18-4-20-16s0-52-10-62s-18,0-28,0
		s-14-40-28-39.1s-6-42.9-6-52.9s-22-24-22-24s-77.4,73.4-86,96c-8.6,22.6-12,16-22,30s28,26,50,50s3.9,70-6.1,76
		c0,0-1.3,27.3-26.6,84c-28.2,63,11.8,68.1,5.8,83.1S606.9,962.9,606.9,962.9z"/>
</g>
<g id="ireland">
	<path id="XMLID_5_" class="st1" d="M267,936c0,0-6-14.7,24-17.9c30-3.1,33,14.9,51-9.1c18-24,5.4-27,41.7-39
		c36.3-12,53.1,15,62.7-18c9.6-33-21.6-126,0-153c21.6-27-41.3-57.2-38.3-85.6C411,585,345,618,360,597c15-21,21-51.4-3-57.4
		S276,591,294,597c18,6,33,16.4,33,16.4s18,28.6,0,34.6c-18,6-28,18-60.5,15c-32.5-3-77.5-3-59.5,15c18,18,3,50.6,18,59.8
		s30,9.2,21,39.2c-9,30-15,50-24,64c-9,14-18,2-30,29s-18,66,18,66S267,936,267,936z"/>
</g>
<g id="Layer_8">
	<path id="XMLID_6_" class="st2" d="M368.9,547.9c4,0,20-10,34,0s10.7,26,24.3,24c13.7-2,5.7-14,23.7-8s8,42,8,42s26,6,26,18
		s4,36-14,40s-16,20-34,0s-23.7-24-28.8-42s-6.4-12.6-24.4-13.3c-18-0.7-20.8,23.3-32.8,12.3C337.7,608.8,368.9,547.9,368.9,547.9z"
		/>
</g>
<g id="scotland_1_">
	<path id="XMLID_1_" class="st3" d="M498,234c-6-6.2-46.7,53.3-42,60l-27,15.8l24,29.2c12,18-3,36,0,51s45,12,45,12s-9,69-9,84
		c0,15-42,54-18,54c24,0,48-29.1,48-29.1s27,2.9,21,20.5c-6,17.6-9,41.6-9,41.6s-29.8,4-20.8,27.2c9,23.2,26.7,9.3,41.7,5.8
		c13.1-3.1,24.1-15.3,39.1-18.1c15-2.9,40.9,4.6,40.9,4.6l77-81.6c0,0,6.9-18.9,0-24.9c-2.3-2-40.1,9.7-47,2.9
		c-3.7-3.7,29.8-20.3,25.5-24.5C675.9,453,658.2,436.3,651,429c-15-15,7-27,30.5-51c23.5-24,28.5-33,30.5-57c2-24,25-54,0-51
		c-25,3-130,14.6-124-0.2s9-35.8,27-50.8c18-15,42-48,48-63s30-21,6-36s-36-33-45-21c-9,12,6,63-6,63s-15.5-3-30.2,3
		c-14.8,6-11.8,15.8-29.8,16.9s-45-13.1-48,0C507,195,513,219,498,234"/>
	<path id="XMLID_44_" class="st4" d="M1160.4,197.4c4-6.8,5.7-10.5,5-11c-0.7-0.5-4,2.5-10,9"/>
	<path id="XMLID_47_" class="st4" d="M1158.7,191.9c0,0,17.7-16.6,9.7-5.5s-9.7,16.1-9.7,16.1l-3.3-10.5"/>
	<g id="Layer_5">
		<path id="XMLID_46_" class="st5" d="M432.9,277.8c-6.9,0-13.8-2.4-15.4-9.7s-3.1-20.5-3.1-20.5s-9.1-2.2-5.5-5.7
			c14.2-13.8,28.1-20.9,28.9-14.4c0.8,6.5-4.9,21.9-4.1,28.4c0.8,6.5,18.7,17,10.6,18.7C436.2,276.1,432.9,277.8,432.9,277.8z"/>
		<path id="XMLID_48_" class="st5" d="M383.8,237.2c0-2.4-1.6-30,6.5-27.6c8.1,2.4,13-27.6,27.6-30c14.6-2.4,47.9-17.9,45.5-11.4
			s-29.2,39-36.1,39s-17.6,6.5-19.2,4.1s-10.5,21.9-15.3,23.5C387.9,236.4,383.8,237.2,383.8,237.2z"/>
	</g>
</g>
<g id="wales">
	<path id="XMLID_45_" class="st0" d="M637.1,755.9c-22-6-30.3-6.7-42-2c-7.7,3.1-13.3,6-25.3,15c-13.5,10.1-54.7,19-36.7,27
		s45.4,6,45.4,6s7.2,11.7-0.2,29.7s-11.2,22.3-24.2,26.3s-33.9-4.1-43,16c-8,17.7-4,40,10,44c6.6,1.9,26.7-9.5,43.3-9
		c18.8,0.6,34.2,11.5,40.9,7.8c12.5-7,5.6-20.9,8.5-35.8c0.9-4.5,0.6-28.2,7.1-40c17.4-31.4,22.5-59.4,24.3-69.2
		C647.7,757.7,637.1,755.9,637.1,755.9z"/>
</g>
</svg>
